<?xml version="1.0" encoding="utf-8"?>
<!-- Generator: Adobe Illustrator 22.0.0, SVG Export Plug-In . SVG Version: 6.00 Build 0)  -->
<svg version="1.1" id="Layer_1" xmlns="http://www.w3.org/2000/svg" xmlns:xlink="http://www.w3.org/1999/xlink" x="0px" y="0px"
	 viewBox="0 0 921.4 937" style="enable-background:new 0 0 921.4 937;" xml:space="preserve">
<style type="text/css">
	.st0{fill:#778EA8;}
	.st1{fill:none;}
</style>
<path class="st0" d="M858.9,0H140.5c-34.5,0-62.5,28-62.5,62.5v374.8h31.2V62.5c0-17.3,14-31.2,31.2-31.2h718.4
	c17.3,0,31.2,14,31.2,31.2v624.7c0,17.3-14,31.2-31.2,31.2H531v31.2h328c34.5,0,62.5-28,62.5-62.5V62.5C921.4,28,893.4,0,858.9,0"/>
<rect x="140.6" y="62.5" class="st0" width="31.2" height="31.2"/>
<rect x="203" y="62.5" class="st0" width="31.2" height="31.2"/>
<rect x="265.5" y="62.5" class="st0" width="31.2" height="31.2"/>
<rect x="140.6" y="124.9" class="st0" width="718.4" height="31.2"/>
<path class="st0" d="M140.6,374.8c0,8.6,7,15.6,15.6,15.6h187.4c8.6,0,15.6-7,15.6-15.6V249.9c0-8.6-7-15.6-15.6-15.6h-71.6
	l-26.7-26.7c-2.9-2.9-6.9-4.6-11-4.6h-78.1c-8.6,0-15.6,7-15.6,15.6V374.8z M171.8,234.3h56l26.7,26.7c2.9,2.9,6.9,4.6,11,4.6H328
	v93.7H171.8V234.3z"/>
<path class="st0" d="M609,249.9c0-8.6-7-15.6-15.6-15.6h-71.6l-26.7-26.7c-2.9-2.9-6.9-4.6-11-4.6H406c-8.6,0-15.6,7-15.6,15.6
	v156.2c0,8.6,7,15.6,15.6,15.6h187.4c8.6,0,15.6-7,15.6-15.6V249.9z M577.8,359.2H421.6V234.3h56l26.7,26.7c2.9,2.9,6.9,4.6,11,4.6
	h62.5V359.2z"/>
<path class="st0" d="M858.9,249.9c0-8.6-7-15.6-15.6-15.6h-71.6L745,207.6c-2.9-2.9-6.9-4.6-11-4.6h-78.1c-8.6,0-15.6,7-15.6,15.6
	v156.2c0,8.6,7,15.6,15.6,15.6h187.4c8.6,0,15.6-7,15.6-15.6V249.9z M827.7,359.2H671.5V234.3h56l26.7,26.7c2.9,2.9,6.9,4.6,11,4.6
	h62.5V359.2z"/>
<path class="st0" d="M531,609v31.2h62.5c8.6,0,15.6-7,15.6-15.6V499.7c0-8.6-7-15.6-15.6-15.6h-71.6l-26.7-26.7
	c-2.9-2.9-6.9-4.6-11-4.6h-46.9v31.2h40.4l26.7,26.7c2.9,2.9,6.9,4.6,11,4.6h62.5V609H531z"/>
<path class="st0" d="M843.3,484.1h-71.6L745,457.5c-2.9-2.9-6.9-4.6-11-4.6h-78.1c-8.6,0-15.6,7-15.6,15.6v156.2
	c0,8.6,7,15.6,15.6,15.6h187.4c8.6,0,15.6-7,15.6-15.6V499.7C858.9,491.1,851.9,484.1,843.3,484.1 M827.7,609H671.5V484.1h56
	l26.7,26.7c2.9,2.9,6.9,4.6,11,4.6h62.5V609z"/>
<path class="st0" d="M56.9,624.7H15.6c-8.6,0-15.6,7-15.6,15.6V734c0,8.6,7,15.6,15.6,15.6h41.3c3.3,10.3,7.4,20.2,12.3,29.8
	l-29.2,29.2c-6.1,6.1-6.1,16,0,22.1l66.3,66.3c6.1,6.1,16,6.1,22.1,0l29.2-29.2c9.6,4.9,19.6,9,29.8,12.3v41.3
	c0,8.6,7,15.6,15.6,15.6h93.7c8.6,0,15.6-7,15.6-15.6v-41.3c10.3-3.3,20.2-7.4,29.8-12.3l29.2,29.2c6.1,6.1,16,6.1,22.1,0l66.3-66.3
	c6.1-6.1,6.1-16,0-22.1l-29.2-29.2c4.9-9.6,9-19.6,12.3-29.8h41.3c8.6,0,15.6-7,15.6-15.6v-93.7c0-8.6-7-15.6-15.6-15.6h-41.3
	c-3.3-10.3-7.4-20.2-12.3-29.8l29.2-29.2c6.1-6.1,6.1-16,0-22.1l-66.3-66.3c-6.1-6.1-16-6.1-22.1,0l-29.2,29.2
	c-9.6-4.9-19.6-9-29.8-12.3v-41.3c0-8.6-7-15.6-15.6-15.6H203c-8.6,0-15.6,7-15.6,15.6v41.3c-10.3,3.3-20.2,7.4-29.8,12.3
	l-29.2-29.2c-6.1-6.1-16-6.1-22.1,0l-66.3,66.3c-6.1,6.1-6.1,16,0,22.1l29.2,29.2c-1.3,2.5-2.5,5.1-3.7,7.7
	C62.2,609.7,59.3,617.1,56.9,624.7 M83.7,644.2c4-15.5,10.1-30.4,18.3-44.2c3.6-6.1,2.6-13.9-2.4-19l-26.4-26.4l44.2-44.2l26.4,26.4
	c5,5,12.8,6,19,2.4c13.8-8.1,28.7-14.3,44.2-18.3c6.9-1.8,11.7-8,11.7-15.1v-37.4h62.5v37.4c0,7.1,4.8,13.3,11.7,15.1
	c15.5,4,30.4,10.1,44.2,18.3c6.1,3.6,13.9,2.6,19-2.4l26.4-26.4l44.2,44.2L400.1,581c-5,5-6,12.8-2.4,19
	c8.1,13.8,14.3,28.7,18.3,44.2c1.8,6.9,8,11.7,15.1,11.7h37.4v62.5h-37.4c-7.1,0-13.3,4.8-15.1,11.7c-4,15.5-10.1,30.4-18.3,44.2
	c-3.6,6.1-2.6,13.9,2.4,19l26.4,26.4l-44.2,44.2L356,837.4c-5-5-12.8-6-19-2.4c-13.8,8.1-28.7,14.3-44.2,18.3
	c-6.9,1.8-11.7,8-11.7,15.1v37.4h-62.5v-37.4c0-7.1-4.8-13.3-11.7-15.1c-15.5-4-30.4-10.1-44.2-18.3c-6.1-3.6-13.9-2.6-19,2.4
	l-26.4,26.4l-44.2-44.2l26.4-26.4c5-5,6-12.8,2.4-19c-8.1-13.8-14.3-28.7-18.3-44.2c-1.8-6.9-8-11.7-15.1-11.7H31.2v-62.5h37.4
	C75.7,655.9,82,651.1,83.7,644.2"/>
<path class="st0" d="M249.9,796.4c60.4,0,109.3-48.9,109.3-109.3c0-60.4-48.9-109.3-109.3-109.3s-109.3,48.9-109.3,109.3
	C140.6,747.5,189.5,796.4,249.9,796.4 M249.9,609c43.1,0,78.1,35,78.1,78.1c0,43.1-35,78.1-78.1,78.1s-78.1-35-78.1-78.1
	C171.8,644,206.8,609.1,249.9,609"/>
<rect class="st1" width="921.4" height="937"/>
</svg>
