<?xml version="1.0" encoding="utf-8"?>
<!-- Generator: Adobe Illustrator 22.0.0, SVG Export Plug-In . SVG Version: 6.00 Build 0)  -->
<svg version="1.1" id="Layer_1" xmlns="http://www.w3.org/2000/svg" xmlns:xlink="http://www.w3.org/1999/xlink" x="0px" y="0px"
	 viewBox="0 0 512 507" style="enable-background:new 0 0 512 507;" xml:space="preserve">
<style type="text/css">
	.st0{fill:#778EA8;}
	.st1{fill:none;}
</style>
<path class="st0" d="M511.6,145.5c-0.6-1.9-2-3.5-3.7-4.4l-23.5-11.9l7.2-14.2c2-3.9,2.3-8.4,1-12.6c-0.5-1.7-1.3-3.2-2.3-4.6
	l13.2-26.2c7-13.8,1.4-30.6-12.3-37.6c-6.6-3.4-14.2-3.9-21.3-1.6c-7.1,2.3-12.9,7.3-16.2,13.9l-13.2,26.2c-6,0.1-11.7,3.3-14.6,9
	l-34,67.3V18.5c0-10.2-8.3-18.5-18.5-18.5H18.5C8.3,0,0,8.3,0,18.5v199.8c0,4.1,3.4,7.5,7.5,7.5s7.5-3.4,7.5-7.5V18.5
	c0-1.9,1.6-3.5,3.5-3.5h354.6c1.9,0,3.5,1.6,3.5,3.5v160.2l-84.7,167.7H87.2c-4.1,0-7.5,3.4-7.5,7.5c0,4.1,3.4,7.5,7.5,7.5h197.1
	l-2.7,5.4c0,0,0,0,0,0.1c-0.4,0.9-0.7,1.8-0.8,2.8l-1.4,21H87.2c-4.1,0-7.5,3.4-7.5,7.5c0,4.1,3.4,7.5,7.5,7.5h191.2l-1.9,29.3H87.2
	c-4.1,0-7.5,3.4-7.5,7.5c0,4.1,3.4,7.5,7.5,7.5h191.5c0.5,0.4,1.1,0.8,1.8,1.2c1.2,0.6,2.3,0.8,3.3,0.8c2.9,0,5.1-1.7,6.2-2.6
	c0.1-0.1,0.1-0.1,0.2-0.2l55.4-46.7c0.8-0.7,1.4-1.4,1.8-2.3c0,0,0,0,0,0l29.1-57.6v146c0,1.9-1.6,3.5-3.5,3.5H18.5
	c-1.9,0-3.5-1.6-3.5-3.5v-235c0-4.1-3.4-7.5-7.5-7.5S0,249.3,0,253.5v235C0,498.7,8.3,507,18.5,507h354.6c10.2,0,18.5-8.3,18.5-18.5
	V312.8l15-29.6c1.9-3.7,0.4-8.2-3.3-10.1c-3.7-1.9-8.2-0.4-10.1,3.3l-55.7,110.2l-39.2-19.8L439,88.5c0.4-0.7,1.3-1,2-0.7l36.5,18.5
	h0l0,0c0.5,0.2,0.6,0.6,0.7,0.9c0.1,0.3,0.1,0.7-0.1,1.1l-69.4,137.4c-1.9,3.7-0.4,8.2,3.3,10.1c3.7,1.9,8.2,0.4,10.1-3.3
	l55.5-109.8l16.8,8.5l-48.5,96c-1.9,3.7-0.4,8.2,3.3,10.1c1.1,0.5,2.2,0.8,3.4,0.8c2.7,0,5.4-1.5,6.7-4.1l51.9-102.7
	C512.1,149.4,512.2,147.4,511.6,145.5 M327.3,398.3l-35.4,29.8l3-46.1L327.3,398.3z M466.8,53.3c1.6-3.1,4.2-5.4,7.5-6.4
	c3.3-1.1,6.8-0.8,9.9,0.7c6.4,3.2,9,11,5.7,17.4l-12.4,24.6l-23.1-11.7L466.8,53.3z"/>
<path class="st0" d="M124,301.2c-4.1,0-7.5,3.4-7.5,7.5c0,4.1,3.4,7.5,7.5,7.5h143.6c4.1,0,7.5-3.4,7.5-7.5c0-4.1-3.4-7.5-7.5-7.5
	H124z"/>
<path class="st0" d="M124.3,242.2c3.3,2,6.8,4.4,10.6,6.9c16.8,11.3,37.7,25.3,60,25.3c0.4,0,0.7,0,1.1,0c0.4,0,0.7,0,1.1,0
	c22.2,0,43.1-14,60-25.3c3.8-2.5,7.4-4.9,10.6-6.9c24.5-15.1,30.6-32.2,21.2-59.1l-15.2-43.3l15.2-22.6c6.2-9.2-1.2-15.8-4-18.3
	l-34-30.4c-5.5-4.9-8.8-5.1-14.2-5c-0.7,0-1.5,0-2.5,0c-1.1,0-2.1,0.2-3.1,0.7l-35.1,15.9l-35.1-15.9c-1-0.4-2-0.7-3.1-0.7
	c-0.9,0-1.8,0-2.5,0c-5.4-0.1-8.7,0.1-14.2,5l-34,30.4c-2.5,2.2-10.2,9-4,18.3l15.2,22.6L103,183C93.6,209.9,99.7,227.1,124.3,242.2
	 M117.2,188l16.4-46.8c0.8-2.2,0.5-4.7-0.9-6.7l-16.2-24.1c0.1-0.1,0.3-0.3,0.4-0.4l34.1-30.4c0.8-0.7,1.2-1,1.4-1.1
	c0.4,0,1.5,0,2.5,0c0.4,0,0.7,0,1.1,0l36.7,16.6c2,0.9,4.2,0.9,6.2,0l36.7-16.6c0.4,0,0.8,0,1.1,0c1,0,2,0,2.5,0
	c0.2,0.1,0.6,0.4,1.4,1.1l34,30.4c0.2,0.1,0.3,0.3,0.4,0.4L259,134.5c-1.3,2-1.6,4.4-0.9,6.7l16.4,46.8c0,0,0,0,0,0
	c7.9,22.4,1.2,31.5-14.9,41.4c-3.5,2.2-7.2,4.6-11.1,7.2c-15.4,10.3-34.5,23.2-52.5,22.7c-0.1,0-0.1,0-0.2,0c-0.1,0-0.1,0-0.2,0
	c-18,0.4-37.1-12.4-52.5-22.7c-3.9-2.6-7.6-5.1-11.1-7.3C116,219.5,109.3,210.4,117.2,188"/>
<path class="st0" d="M151.2,167.4l5.1,7.5c0,0,0,0,0,0l5.6,8.2l0.4,10.5l0.2,8c0,0.1,0,0.3,0,0.4c0.3,3.4,1.9,6.3,4.5,8.3
	c2.6,2,6.1,2.7,9.5,2c0.1,0,0.2,0,0.2-0.1l19.2-4.7l19.2,4.7c0.1,0,0.1,0,0.2,0.1c0.9,0.2,1.7,0.3,2.6,0.3c2.5,0,4.9-0.8,6.9-2.2
	c2.6-1.9,4.2-4.9,4.5-8.3c0-0.1,0-0.3,0-0.4l0.2-7.9l0.4-10.6l10.7-15.6c0.1-0.1,0.1-0.2,0.2-0.3c1.8-2.9,2.2-6.3,1.2-9.4
	c-1-3.2-3.4-5.6-6.7-7c-0.1-0.1-0.3-0.1-0.4-0.1l-18.3-6.4l-12.2-14.6c-0.1-0.1-0.1-0.1-0.2-0.2c-2-2.3-4.7-3.6-7.7-3.9
	c-0.4,0-0.8,0-1.3,0c-2.9,0.2-5.6,1.6-7.7,3.9c-0.1,0.1-0.1,0.1-0.2,0.2l-12.2,14.6l-18.3,6.4c-0.1,0-0.2,0.1-0.4,0.1
	c-3.3,1.4-5.7,3.9-6.8,7c-1,3.1-0.6,6.5,1.2,9.5C151.1,167.2,151.2,167.3,151.2,167.4z M182.2,157.5c1.3-0.4,2.4-1.2,3.3-2.3
	l10.4-12.5l10.5,12.5c0.9,1,2,1.8,3.3,2.3l15.8,5.5l-9.1,13.3c-0.8,1.2-1.2,2.5-1.3,3.9l-0.5,12.8l-0.1,3.4l-16.7-4.1
	c-0.6-0.1-1.2-0.2-1.8-0.2c-0.6,0-1.2,0.1-1.8,0.2l-16.7,4.1l-0.6-16.3c-0.1-1.4-0.5-2.8-1.3-3.9l-9.1-13.3L182.2,157.5z"/>
<rect y="0" class="st1" width="512" height="507"/>
</svg>
