<?xml version="1.0" encoding="utf-8"?>
<!-- Generator: Adobe Illustrator 22.0.0, SVG Export Plug-In . SVG Version: 6.00 Build 0)  -->
<svg version="1.1" id="Layer_1" xmlns="http://www.w3.org/2000/svg" xmlns:xlink="http://www.w3.org/1999/xlink" x="0px" y="0px"
	 viewBox="0 0 480 480" style="enable-background:new 0 0 480 480;" xml:space="preserve">
<style type="text/css">
	.st0{fill:#778EA8;}
	.st1{clip-path:url(#SVGID_2_);fill:#778EA8;}
</style>
<rect x="280" y="400" class="st0" width="16" height="80"/>
<rect x="184" y="400" class="st0" width="16" height="80"/>
<g>
	<defs>
		<rect id="SVGID_1_" width="480" height="480"/>
	</defs>
	<clipPath id="SVGID_2_">
		<use xlink:href="#SVGID_1_"  style="overflow:visible;"/>
	</clipPath>
	<path class="st1" d="M240,224c-22.1,0-40,17.9-40,40v16c0,22.1,17.9,40,40,40c22.1,0,40-17.9,40-40v-16
		C280,241.9,262.1,224,240,224 M264,280c0,13.3-10.7,24-24,24c-13.3,0-24-10.7-24-24v-16c0-13.3,10.7-24,24-24c13.3,0,24,10.7,24,24
		V280z"/>
	<path class="st1" d="M424,352h-80c-7.2,0-14.4,1.4-21.1,4.1C312.3,343.4,296.6,336,280,336h-80c-16.6,0-32.3,7.4-42.9,20.1
		c-6.7-2.7-13.8-4.1-21.1-4.1H56c-30.9,0-56,25.1-56,56v72h16v-72c0-22.1,17.9-40,40-40h32v112h16V368h32c4.2,0,8.5,0.7,12.5,2.1
		c-3,6.9-4.5,14.4-4.5,21.9v88h16v-88c0-22.1,17.9-40,40-40h32v128h16V352h32c22.1,0,40,17.9,40,40v88h16v-88c0-7.5-1.5-15-4.5-21.9
		c4-1.4,8.2-2.1,12.5-2.1h32v112h16V368h32c22.1,0,40,17.9,40,40v72h16v-72C480,377.1,454.9,352,424,352"/>
	<rect x="40" y="416" class="st1" width="16" height="64"/>
	<path class="st1" d="M96,240c-22.1,0-40,17.9-40,40v16c0,22.1,17.9,40,40,40s40-17.9,40-40v-16C136,257.9,118.1,240,96,240
		 M120,296c0,13.3-10.7,24-24,24s-24-10.7-24-24v-16c0-13.3,10.7-24,24-24s24,10.7,24,24V296z"/>
	<rect x="424" y="416" class="st1" width="16" height="64"/>
	<path class="st1" d="M384,240c-22.1,0-40,17.9-40,40v16c0,22.1,17.9,40,40,40c22.1,0,40-17.9,40-40v-16
		C424,257.9,406.1,240,384,240 M408,296c0,13.3-10.7,24-24,24c-13.3,0-24-10.7-24-24v-16c0-13.3,10.7-24,24-24c13.3,0,24,10.7,24,24
		V296z"/>
	<path class="st1" d="M427.8,200c-4.8-23-13.9-44.8-26.7-64.5L438,98.6L381.4,42L344.5,79C324.8,66.1,303,57.1,280,52.2V0h-80v52.2
		c-23,4.9-44.8,13.9-64.5,26.7L98.6,42L42,98.6L79,135.5C66.1,155.2,57.1,177,52.2,200H0v80h40v-16H16v-48h49.5l1.2-6.6
		c4.4-25.3,14.3-49.3,29.1-70.3l3.9-5.5l-35-35l33.9-33.9l35,35l5.5-3.8c21-14.8,45-24.7,70.3-29.1l6.6-1.2V16h48v49.5l6.6,1.2
		c25.3,4.4,49.3,14.3,70.3,29.1l5.5,3.9l35-35l33.9,33.9l-35,35l3.9,5.5c14.8,21,24.7,45,29.1,70.3l1.2,6.6H464v48h-24v16h40v-80
		H427.8z"/>
	<path class="st1" d="M231.1,168.4c-28.2,4.1-50.4,26.2-54.4,54.4l15.8,2.3c3.8-26.4,28.3-44.7,54.7-40.9
		c21.2,3.1,37.8,19.7,40.9,40.9l15.8-2.3C298.8,187.7,266.2,163.3,231.1,168.4"/>
	<path class="st1" d="M223.1,121c-52.8,7.5-94.3,49-101.9,101.9l15.8,2.3c8.2-56.9,60.9-96.3,117.7-88.2
		c45.7,6.6,81.6,42.5,88.2,88.2h0l15.8-2.3C349.4,157.3,288.7,111.6,223.1,121"/>
</g>
</svg>
