<?xml version="1.0" encoding="utf-8"?>
<!-- Generator: Adobe Illustrator 22.0.0, SVG Export Plug-In . SVG Version: 6.00 Build 0)  -->
<svg version="1.1" id="Layer_1" xmlns="http://www.w3.org/2000/svg" xmlns:xlink="http://www.w3.org/1999/xlink" x="0px" y="0px"
	 viewBox="0 0 469.3 512" style="enable-background:new 0 0 469.3 512;" xml:space="preserve">
<style type="text/css">
	.st0{clip-path:url(#SVGID_2_);fill:#778EA8;}
</style>
<g>
	<defs>
		<rect id="SVGID_1_" width="469.3" height="512"/>
	</defs>
	<clipPath id="SVGID_2_">
		<use xlink:href="#SVGID_1_"  style="overflow:visible;"/>
	</clipPath>
	<path class="st0" d="M341.3,405.3h-74.7c-5.9,0-10.7,4.8-10.7,10.7v74.7H21.3V21.3h320v85.3h21.3V21.3c0-11.8-9.6-21.3-21.3-21.3
		h-320C9.6,0,0,9.6,0,21.3v469.3C0,502.4,9.6,512,21.3,512h277.3c2.8,0,5.5-1.1,7.5-3.1l53.3-53.3c2-2,3.1-4.7,3.1-7.5v-64h-21.3
		V405.3z M341.3,443.6l-47.1,47.1h-16.9v-64h64V443.6z"/>
	<path class="st0" d="M298.7,128V96c0-5.9-4.8-10.7-10.7-10.7H74.7C68.8,85.3,64,90.1,64,96v128c0,5.9,4.8,10.7,10.7,10.7h138.7
		v-21.3h-128V106.7h192V128H298.7z"/>
	<rect x="64" y="277.3" class="st0" width="106.7" height="21.3"/>
	<rect x="192" y="277.3" class="st0" width="21.3" height="21.3"/>
	<rect x="64" y="341.3" class="st0" width="64" height="21.3"/>
	<rect x="149.3" y="341.3" class="st0" width="106.7" height="21.3"/>
	<rect x="64" y="405.3" class="st0" width="106.7" height="21.3"/>
	<rect x="192" y="405.3" class="st0" width="42.7" height="21.3"/>
	<path class="st0" d="M352,128c-64.7,0-117.3,52.6-117.3,117.3c0,64.7,52.6,117.3,117.3,117.3c64.7,0,117.3-52.6,117.3-117.3
		C469.3,180.6,416.7,128,352,128 M298.7,325.1V320c0-17.6,14.4-32,32-32h42.7c17.6,0,32,14.4,32,32v5.1
		c-15.3,10.2-33.6,16.2-53.3,16.2C332.3,341.3,313.9,335.3,298.7,325.1 M352,256c-17.6,0-32-14.4-32-32c0-17.6,14.4-32,32-32
		c17.6,0,32,14.4,32,32C384,241.6,369.6,256,352,256 M425,307.5c-4.9-20.4-21.6-36.2-42.5-39.9c13.8-9.7,22.8-25.6,22.8-43.6
		c0-29.4-23.9-53.3-53.3-53.3c-29.4,0-53.3,23.9-53.3,53.3c0,18,9,33.9,22.8,43.6c-20.9,3.7-37.5,19.5-42.5,39.9
		c-14.3-16.8-23-38.5-23-62.2c0-52.9,43.1-96,96-96c52.9,0,96,43.1,96,96C448,269,439.3,290.7,425,307.5"/>
</g>
</svg>
