<?xml version="1.0" encoding="utf-8"?>
<!-- Generator: Adobe Illustrator 22.0.0, SVG Export Plug-In . SVG Version: 6.00 Build 0)  -->
<svg version="1.1" id="Layer_1" xmlns="http://www.w3.org/2000/svg" xmlns:xlink="http://www.w3.org/1999/xlink" x="0px" y="0px"
	 viewBox="0 0 512 507" style="enable-background:new 0 0 512 507;" xml:space="preserve">
<style type="text/css">
	.st0{clip-path:url(#SVGID_2_);fill:#778EA8;}
</style>
<g>
	<defs>
		<rect id="SVGID_1_" width="512" height="507"/>
	</defs>
	<clipPath id="SVGID_2_">
		<use xlink:href="#SVGID_1_"  style="overflow:visible;"/>
	</clipPath>
	<path class="st0" d="M507.8,62.1c-0.3-0.3-60.4-57.6-60.4-57.6C445,2.3,442.7,0,438.2,0H196.1c-7.1,0-12.8,5.8-12.8,12.8v39.4
		L97.9,66.8c-6.8,1.2-11.4,7.7-10.3,14.6l4.3,25.3c-27.7,9.3-56.2,19-83.7,28.8c-6.5,2.4-9.9,9.6-7.6,16.1l54.7,152
		c1.1,3.1,4,5,7.1,5c0.8,0,1.7-0.1,2.5-0.4c3.9-1.4,5.9-5.7,4.5-9.6L15.7,148.8c25.9-9.3,52.7-18.3,78.9-27.2l25.8,150.2l29.7,173
		c1.1,6.1,6.4,10.5,12.5,10.5c0.7,0,1.4-0.1,2.1-0.2l80.3-13.8l62.8-10.8l-94.4,33.9l-74.4,26.8L81,330.6c-1.4-3.9-5.7-5.9-9.6-4.5
		c-3.9,1.4-5.9,5.7-4.5,9.6l58.6,163.1c1.9,5.1,6.7,8.3,11.9,8.3c1.4,0,2.9-0.2,4.3-0.8l76.7-27.6l174.1-62.6l33.3-5.7h73.5
		c7.1,0,12.8-5.8,12.8-12.9v-327C512,66.1,509.6,63.8,507.8,62.1 M487.9,63.9h-37.5l-0.9,0c-1.8,0-6,0-7.1-1
		c-0.2-0.2-0.5-1.1-0.5-2.6l-0.1-40.4L487.9,63.9z M497,395.4H198.3V249.2c0-4.1-3.4-7.5-7.5-7.5c-4.1,0-7.5,3.4-7.5,7.5v148.3
		c0,7.1,5.8,12.9,12.8,12.9h140.8l-94.5,16.2l-78,13.4l-29.2-170.7L102.9,81.2l80.4-13.8v147c0,4.1,3.4,7.5,7.5,7.5s7.5-3.4,7.5-7.5
		V15h228.5l0.1,45.3c0,5.5,1.7,9.9,5,13.2c5.1,5,12.2,5.4,16.7,5.4c0.4,0,0.7,0,1.1,0l47.4,0V395.4z"/>
	<path class="st0" d="M234.4,116.5c0,4.1,3.4,7.5,7.5,7.5h214.4c4.1,0,7.5-3.4,7.5-7.5c0-4.1-3.4-7.5-7.5-7.5H241.9
		C237.8,109,234.4,112.3,234.4,116.5"/>
	<path class="st0" d="M456.4,162.2H241.9c-4.1,0-7.5,3.4-7.5,7.5c0,4.1,3.4,7.5,7.5,7.5h214.4c4.1,0,7.5-3.4,7.5-7.5
		C463.9,165.6,460.5,162.2,456.4,162.2"/>
	<path class="st0" d="M456.4,215.5H241.9c-4.1,0-7.5,3.4-7.5,7.5c0,4.1,3.4,7.5,7.5,7.5h214.4c4.1,0,7.5-3.4,7.5-7.5
		C463.9,218.9,460.5,215.5,456.4,215.5"/>
	<path class="st0" d="M456.4,268.8H241.9c-4.1,0-7.5,3.4-7.5,7.5c0,4.1,3.4,7.5,7.5,7.5h214.4c4.1,0,7.5-3.4,7.5-7.5
		C463.9,272.2,460.5,268.8,456.4,268.8"/>
	<path class="st0" d="M456.4,322.1H241.9c-4.1,0-7.5,3.4-7.5,7.5c0,4.1,3.4,7.5,7.5,7.5h214.4c4.1,0,7.5-3.4,7.5-7.5
		C463.9,325.4,460.5,322.1,456.4,322.1"/>
</g>
</svg>
