<?xml version="1.0" encoding="utf-8"?>
<!-- Generator: Adobe Illustrator 22.0.0, SVG Export Plug-In . SVG Version: 6.00 Build 0)  -->
<svg version="1.1" id="Layer_1" xmlns="http://www.w3.org/2000/svg" xmlns:xlink="http://www.w3.org/1999/xlink" x="0px" y="0px"
	 viewBox="0 0 436 568.7" style="enable-background:new 0 0 436 568.7;" xml:space="preserve">
<style type="text/css">
	.st0{clip-path:url(#SVGID_2_);fill:#438AFE;}
</style>
<g>
	<defs>
		<rect id="SVGID_1_" width="436" height="568.7"/>
	</defs>
	<clipPath id="SVGID_2_">
		<use xlink:href="#SVGID_1_"  style="overflow:visible;"/>
	</clipPath>
	<path class="st0" d="M0,66.4v492.9c0,5.2,4.2,9.5,9.5,9.5h360.2c5.2,0,9.5-4.2,9.5-9.5V161.1c0-0.2-0.1-0.4-0.1-0.6
		c0-0.8-0.2-1.7-0.5-2.4c-0.1-0.3-0.2-0.6-0.3-0.9c-0.5-1-1.1-2-1.9-2.8l-94.8-94.8c-0.8-0.8-1.7-1.4-2.8-1.9
		c-0.3-0.1-0.6-0.2-0.9-0.3c-0.8-0.3-1.6-0.4-2.5-0.5c-0.2,0-0.3-0.1-0.5-0.1H9.5C4.2,56.9,0,61.1,0,66.4 M346.8,151.7h-62.4V89.2
		L346.8,151.7z M19,75.8h246.4v85.3c0,5.2,4.2,9.5,9.5,9.5h85.3v379.1H19V75.8z"/>
	<path class="st0" d="M398.1,492.9v19h28.4c5.2,0,9.5-4.2,9.5-9.5V9.5c0-5.2-4.2-9.5-9.5-9.5H66.3c-5.2,0-9.5,4.2-9.5,9.5v28.4h19
		V19h341.2v473.9H398.1z"/>
	<rect x="72.8" y="189.6" class="st0" width="227.5" height="19"/>
	<rect x="72.8" y="132.7" class="st0" width="75.8" height="19"/>
	<rect x="72.8" y="246.4" class="st0" width="151.7" height="19"/>
	<rect x="243.4" y="246.4" class="st0" width="56.9" height="19"/>
	<rect x="72.8" y="303.3" class="st0" width="227.5" height="19"/>
	<rect x="75.8" y="417.1" class="st0" width="227.5" height="19"/>
	<rect x="158.1" y="360.2" class="st0" width="142.2" height="19"/>
	<rect x="75.8" y="360.2" class="st0" width="66.3" height="19"/>
	<rect x="75.8" y="473.9" class="st0" width="37.9" height="19"/>
	<rect x="132.7" y="473.9" class="st0" width="170.6" height="19"/>
</g>
</svg>
